<svg xmlns="http://www.w3.org/2000/svg" width="100" height="97" viewBox="0 0 100 97"><defs><style>.cls-1{fill-rule:evenodd}</style></defs><path d="M349.437,1944.09c2.049,0.13,4.1.29,6.11,0.46a143.586,143.586,0,0,1-2.066,18.03l8.212-1.64-5.362-8.25,9.566-5.55-7.945-5.28,6.021-12.38-16.531,3.19-0.89-16.45-13.77,11.7L316.7,1909.13l-3.456,23.43-19.417-4.14,5.416,13.23-12.345,6.47,13.681,4.91-6.645,9.4,9.566,0.29a136.793,136.793,0,0,1-2.1-18.17c2.013-.17,4.044-0.33,6.11-0.46,0.677,17.63,3.865,44.68,20.966,44.65,17.119,0.03,20.307-26.89,20.966-44.65h0Zm-25.758,28.77a4.792,4.792,0,1,0,9.584,0h4.453a9.245,9.245,0,1,1-18.49,0h4.453Zm28.626-4.86c-0.392,1.55-.819,3.11-1.282,4.62l2.832,0.27Zm-2.939,9.28c-3.972,9.96-10.438,17.74-20.895,17.72-10.51.02-16.976-7.83-20.966-17.84l-10.991,1.75,2.939-11.51-14.589-.45,8.159-11.53L275,1948.93l18.151-9.5-7.2-17.61,23.282,4.98,4.257-28.8,19.826,23.16,17.493-14.86,1.122,20.61,20.575-4-8.39,17.27L375,1947.41l-11.881,6.91,6.484,9.95-12.647,2.54,3.687,11.52Zm-43.464-4.73c-0.552-1.75-1.033-3.53-1.461-5.32l-1.461,5.79Zm32.188-18.41a1.505,1.505,0,1,1-1.514,1.51,1.5,1.5,0,0,1,1.514-1.51h0Zm-19.238-7.6a9.1,9.1,0,0,1,8.568,6.04,9.235,9.235,0,0,1,2.1,0,9.1,9.1,0,1,1-.374,4.82,3.519,3.519,0,0,0-1.372,0,9.1,9.1,0,1,1-8.924-10.86h0Zm0,4.81a4.3,4.3,0,1,0,4.293,4.3,4.3,4.3,0,0,0-4.293-4.3h0Zm19.238,0a4.3,4.3,0,1,0,4.293,4.3,4.3,4.3,0,0,0-4.293-4.3h0Zm-19.238,2.22a2.085,2.085,0,1,1-2.084,2.08,2.082,2.082,0,0,1,2.084-2.08h0Z" class="cls-1" transform="translate(-275 -1898)"/></svg>