<svg xmlns="http://www.w3.org/2000/svg" xmlns:xlink="http://www.w3.org/1999/xlink" id="Layer_1" width="79" height="67.7" x="0" style="enable-background:new 0 0 79 67.7" y="0" version="1.1" viewBox="0 0 79 67.7" xml:space="preserve"><style type="text/css">.st0{fill-rule:evenodd;clip-rule:evenodd}</style><g><path d="M77.3,1.8C76.1,0.7,74.6,0,73,0H49.2c-2.8,0-5.9,3.6-8.8,7c-0.1,0.1-0.2,0.2-0.2,0.2L39.5,8H7.4 c-2,0-3.9,0.8-5.2,2.1l0,0C0.8,11.5,0,13.3,0,15.3v44.9c0,2,0.8,3.9,2.2,5.2c1.3,1.3,3.2,2.2,5.2,2.2h64.2c1.9,0,3.7-0.8,5-2 c0.1-0.1,0.2-0.2,0.2-0.2c1.3-1.3,2.2-3.2,2.2-5.2V6C79,4.3,78.3,2.8,77.3,1.8z M7.4,14.1h33.5c1,0,1.9-0.5,2.5-1.2 c0.6-0.7,1-1.2,1.4-1.7v0c0.1-0.1,0.2-0.2,0.2-0.3c2-2.3,4.1-4.8,4.1-4.8h23.7v13.4H6.1v-4.2c0-0.3,0.2-0.7,0.4-0.9 C6.7,14.2,7.1,14.1,7.4,14.1z M72.5,61.2C72.5,61.2,72.4,61.2,72.5,61.2c-0.3,0.2-0.6,0.4-0.9,0.4H7.4c-0.3,0-0.7-0.2-0.9-0.4 c-0.2-0.2-0.4-0.6-0.4-0.9V25.6h66.7v34.7C72.9,60.6,72.7,60.9,72.5,61.2z" class="st0"/><path d="M45.5,41.6c0,3.1-2.5,5.7-5.7,5.7c-3.1,0-5.7-2.6-5.7-5.7c0-0.1,0-0.1,0-0.2h-5.8c0,0.1,0,0.1,0,0.2 c0,6.3,5.2,11.5,11.5,11.5c6.4,0,11.5-5.1,11.5-11.5c0-0.1,0-0.1,0-0.2h-5.8C45.5,41.5,45.5,41.6,45.5,41.6z" class="st0"/><path d="M62.2,34.3c-4.1,0-7.5,3.3-7.5,7.4s3.3,7.4,7.5,7.4c4.1,0,7.5-3.3,7.5-7.4S66.3,34.3,62.2,34.3z M62.2,44.1 c-1.3,0-2.4-1.1-2.4-2.4c0-1.3,1-2.4,2.4-2.4c1.3,0,2.4,1,2.4,2.4C64.5,43,63.5,44.1,62.2,44.1z" class="st0"/><path d="M17.1,34.3c-4.1,0-7.5,3.3-7.5,7.4s3.3,7.4,7.5,7.4c4.1,0,7.5-3.3,7.5-7.4S21.2,34.3,17.1,34.3z M17.1,44.1 c-1.3,0-2.4-1.1-2.4-2.4c0-1.3,1.1-2.4,2.4-2.4c1.3,0,2.4,1,2.4,2.4C19.4,43,18.3,44.1,17.1,44.1z" class="st0"/></g></svg>