<svg xmlns="http://www.w3.org/2000/svg" xmlns:xlink="http://www.w3.org/1999/xlink" id="Layer_1" width="80" height="76.9" x="0" style="enable-background:new 0 0 80 76.9" y="0" version="1.1" viewBox="0 0 80 76.9" xml:space="preserve"><style type="text/css">.st0{fill:#141515}.st0,.st1{fill-rule:evenodd;clip-rule:evenodd}</style><g><path d="M2,34.7c0,5.8,4.7,10.5,10.5,10.5c5.8,0,10.5-4.7,10.5-10.5c-7.2,0,0,0-7.2,0c0,1.8-1.5,3.3-3.3,3.3 c-1.8,0-3.3-1.5-3.3-3.3C2,34.7,9.1,34.7,2,34.7L2,34.7z" class="st0"/><path d="M59,68.5c0-5.8,4.7-10.5,10.5-10.5c5.8,0,10.5,4.7,10.5,10.5c-7.2,0,0,0-7.2,0c0-1.8-1.5-3.3-3.3-3.3 c-1.8,0-3.3,1.5-3.3,3.3C59,68.5,66.2,68.5,59,68.5L59,68.5z" class="st0"/><rect width="7" height="20.2" x="9" y="2.3" class="st1"/><rect width="7.1" height="20.2" x="65.7" y="30.1" class="st1"/><polygon points="76.8 19.8 71.8 24.8 59.4 12.4 71.8 0 76.8 5 69.4 12.4" class="st1"/><polygon points="19.9 73.1 24.9 68.2 12.5 55.7 0 68.2 5 73.1 12.5 65.7" class="st1"/><polygon points="30.7 44.6 35.7 49.6 40.4 44.9 45 49.6 50 44.6 45.4 39.9 50 35.3 45 30.3 40.4 34.9 35.7 30.3 30.7 35.3 35.4 39.9" class="st1"/><path d="M40.8,2C35,2,30.3,6.6,30.3,12.4c0,5.8,4.7,10.5,10.5,10.5c5.8,0,10.5-4.7,10.5-10.5C51.3,6.6,46.6,2,40.8,2 L40.8,2z M37.5,12.4c0-1.8,1.5-3.3,3.3-3.3c1.8,0,3.3,1.5,3.3,3.3c0,1.8-1.5,3.3-3.3,3.3C39,15.7,37.5,14.3,37.5,12.4L37.5,12.4z" class="st1"/><path d="M40.7,55.9c-5.8,0-10.5,4.7-10.5,10.5c0,5.8,4.7,10.5,10.5,10.5c5.8,0,10.5-4.7,10.5-10.5 C51.2,60.6,46.5,55.9,40.7,55.9L40.7,55.9z M37.4,66.4c0-1.8,1.5-3.3,3.3-3.3s3.3,1.5,3.3,3.3c0,1.8-1.5,3.3-3.3,3.3 S37.4,68.2,37.4,66.4L37.4,66.4z" class="st1"/></g></svg>