<svg xmlns="http://www.w3.org/2000/svg" xmlns:xlink="http://www.w3.org/1999/xlink" id="Layer_1" width="83" height="93.1" x="0" style="enable-background:new 0 0 83 93.1" y="0" version="1.1" viewBox="0 0 83 93.1" xml:space="preserve"><style type="text/css">.st0{fill-rule:evenodd;clip-rule:evenodd}</style><g><path d="M46.9,69.5c0,2.8-2.3,5.1-5.1,5.1c-2.8,0-5.1-2.3-5.1-5.1c0-0.1,0-0.1,0-0.2h-5.2c0,0.1,0,0.1,0,0.2 c0,5.6,4.6,10.2,10.2,10.2c5.6,0,10.2-4.6,10.2-10.2c0-0.1,0-0.1,0-0.2h-5.2C46.9,69.4,46.9,69.5,46.9,69.5z" class="st0"/><rect width="14.3" height="5" x="44.1" y="48.9" class="st0"/><path d="M82.5,19.5l-5.2-1.5c0,0-4.2,4.8-6.7-2.1C67.8,8.2,59.2,2.5,51.7,0l-3.6,4.2c2.5,4.8-0.9,10.9-6.6,10.9 s-9.1-6-6.6-10.8l-3.6-4.2C23.4,2.9,15.3,7.9,12.4,16c-2.5,6.9-6.7,2.1-6.7,2.1l-5.2,1.5c-3.1,17,8.4,19.2,12.6,19.5 c0.7,16.7,4.9,54.1,28.4,54C65,93.2,69.2,55.8,69.9,39.1C74.1,38.8,85.6,36.5,82.5,19.5z M29.6,51c0-1.4,1.1-2.5,2.5-2.5 c1.4,0,2.5,1.1,2.5,2.5s-1.1,2.5-2.5,2.5C30.7,53.5,29.6,52.4,29.6,51z M35.5,43.9c-1-0.5-2.2-0.8-3.4-0.8c-4.4,0-7.9,3.5-7.9,7.9 c0,1.2,0.3,2.4,0.8,3.4l-3.8,3.8c-1.3-7.7-1.6-15-1.7-19.1l20.9,0L35.5,43.9z M41.5,86.6c-10.8,0-16.4-10.9-19.2-22.6l6-6 c1.1,0.6,2.4,0.9,3.7,0.9c4.4,0,7.9-3.6,7.9-7.9c0-1.3-0.3-2.6-0.9-3.7l8.2-8.2l16.2,0C63.4,50.2,61.3,86.7,41.5,86.6z M68.7,33.1 l-54.4,0.1c0,0-7.4,0.4-8.2-7.4c3.6,1.7,8.6,1.6,11.9-7.7c1.7-4.6,5.8-7.9,10-10.1c0.1,7.3,6.1,13.1,13.4,13.1 c7.3,0,13.3-5.9,13.4-13.2c4,2.1,8.5,5.8,10,10.1c3.4,9.3,8.3,9.4,11.9,7.7C76.1,33.6,68.7,33.1,68.7,33.1z" class="st0"/><path d="M41.5,24.3c-1.4,0-2.5,1.1-2.5,2.5s1.1,2.5,2.5,2.5c1.4,0,2.5-1.1,2.5-2.5S42.9,24.3,41.5,24.3z" class="st0"/></g></svg>