<svg xmlns="http://www.w3.org/2000/svg" xmlns:xlink="http://www.w3.org/1999/xlink" id="Layer_1" width="32" height="32" x="0" style="enable-background:new 0 0 32 32" y="0" version="1.1" viewBox="0 0 32 32" xml:space="preserve"><style type="text/css">.st0{fill:#28c262}</style><g><polygon points="24.1 3.8 17.7 3.8 17.7 0 13.8 0 13.8 3.8 7.4 3.8 7.4 7.6 24.1 7.6" class="st0"/><polygon points="7.4 28.2 13.8 28.2 13.8 32 17.7 32 17.7 28.2 24.1 28.2 24.1 24.4 7.4 24.4" class="st0"/><rect width="6.9" height="3.8" x="3.9" y="20.6" class="st0"/><polygon points="7.9 11.4 10.8 11.4 10.8 7.6 3.9 7.6 3.9 14.1 7.9 14.1" class="st0"/><polygon points="7.9 17.9 7.9 14.1 3.9 14.1 3.9 20.6 7.9 20.6" class="st0"/><polygon points="17.7 20.7 17.7 17.9 20.7 17.9 20.7 14.1 17.7 14.1 17.7 11.3 13.8 11.3 13.8 14.1 10.8 14.1 10.8 17.9 13.8 17.9 13.8 20.7" class="st0"/><rect width="3.9" height="3.8" x="28.1" y="14.1" class="st0"/><rect width="3.9" height="3.8" y="14.1" class="st0"/><polygon points="24.1 17.9 24.1 20.6 20.7 20.6 20.7 24.4 28.1 24.4 28.1 14.1 24.1 14.1" class="st0"/><polygon points="20.7 11.4 24.1 11.4 24.1 14.1 28.1 14.1 28.1 7.6 20.7 7.6" class="st0"/></g></svg>