<svg xmlns="http://www.w3.org/2000/svg" width="103" height="82" fill="none" viewBox="0 0 103 82"><rect width="8.868" height="64.119" y="8.868" fill="#fff"/><rect width="8.651" height="85.698" x="94.349" fill="#fff" transform="rotate(90 94.3486 0)"/><rect width="8.651" height="85.698" x="94.349" y="72.987" fill="#fff" transform="rotate(90 94.3486 72.9868)"/><rect width="8.651" height="17.302" x="60.016" y="42.714" fill="#fff" transform="rotate(90 60.0156 42.7141)"/><rect width="8.651" height="8.651" x="42.714" y="34.063" fill="#fff" transform="rotate(90 42.7139 34.063)"/><rect width="8.651" height="8.651" x="34.063" y="25.412" fill="#fff" transform="rotate(90 34.0625 25.4121)"/><rect width="8.651" height="8.651" x="25.412" y="16.761" fill="#fff" transform="rotate(90 25.4121 16.7612)"/><rect width="8.651" height="8.651" x="17.302" y="8.651" fill="#fff" transform="rotate(90 17.3018 8.65112)"/><rect width="8.651" height="8.651" x="94.349" y="8.651" fill="#fff" transform="rotate(90 94.3486 8.65112)"/><rect width="8.651" height="8.651" x="85.698" y="16.761" fill="#fff" transform="rotate(90 85.6982 16.7612)"/><rect width="8.651" height="8.651" x="77.047" y="25.412" fill="#fff" transform="rotate(90 77.0469 25.4121)"/><rect width="8.651" height="8.651" x="68.397" y="34.063" fill="#fff" transform="rotate(90 68.3965 34.063)"/><rect width="8.868" height="64.119" x="94.133" y="8.868" fill="#fff"/></svg>