<svg xmlns="http://www.w3.org/2000/svg" xmlns:xlink="http://www.w3.org/1999/xlink" id="Layer_1" width="22" height="17" x="0" style="enable-background:new 0 0 22 17" y="0" version="1.1" viewBox="0 0 22 17" xml:space="preserve"><style type="text/css">.st0{fill:#fff}</style><g><polygon points="22 2.8 22 0 13.2 0 13.2 3.6 11.6 3.6 11.6 6.8 8.8 6.8 8.8 13.6 11.6 13.6 11.6 12 13.6 12 13.6 9.6 15.2 9.6 15.2 13.6 13.2 13.6 13.2 16.4 22 16.4 22 13.6 20 13.6 20 2.8 22 2.8" class="st0"/><polygon points="5.2 2.8 5.2 2.8 5.2 0 0 0 0 2.8 2 2.8 2 13.6 0 13.6 0 16.4 6.8 16.4 6.8 13.6 5.2 13.6 5.2 2.8" class="st0"/><polygon points="6.8 1.6 5.2 1.6 5.2 9.6 6.8 9.6 6.8 11.6 8.8 11.6 8.8 3.6 6.8 3.6 6.8 1.6" class="st0"/></g></svg>