<?xml version="1.0" encoding="utf-8"?><svg xmlns="http://www.w3.org/2000/svg" xmlns:xlink="http://www.w3.org/1999/xlink"><symbol id="arrow-link" xml:space="preserve" viewBox="0 0 14 13" xmlns="http://www.w3.org/2000/svg"><style>.ast0{fill:#272727}</style><path class="ast0" d="M.9 7L6 2l1 1-3.2 3.3h8.5V0h1.5v7.8h-10L7 11l-1 1z"/></symbol><symbol id="calendar" xml:space="preserve" viewBox="0 0 32 32" xmlns="http://www.w3.org/2000/svg"><style>.bst0{fill:#28c262}</style><path class="bst0" d="M6.6 0h3.8v3.8H6.6zM10.4 12.2h3.8V16h-3.8zM18.8 12.2h3.8V16h-3.8zM10.4 19.8h3.8v3.8h-3.8zM18.8 19.8h3.8v3.8h-3.8zM10.4 3.8h11.3v3.8H10.4z"/><path class="bst0" d="M25.4 3.8V0h-3.8v3.8h3.8v3.7h2.8v20.7H32V3.8zM6.6 7.5V3.8H0v24.4h3.8V7.5zM3.8 28.2h24.5V32H3.8z"/></symbol><symbol id="face" xml:space="preserve" viewBox="0 0 70.4 90.2" xmlns="http://www.w3.org/2000/svg"><style>.cst0{fill-rule:evenodd;clip-rule:evenodd}</style><path class="cst0" d="M35.6 66.3c-3.5 0-6.3-2.8-6.3-6.3v-.2h-6.4v.2c0 7 5.7 12.6 12.6 12.6S48.2 67 48.2 60v-.2h-6.4v.2c0 3.5-2.8 6.3-6.2 6.3zM38.2 32.5h17.6v6.1H38.2z"/><path class="cst0" d="M8 19.7c17.6-5.6 24.2-9 27.2-10.7 3 1.7 9.7 5.2 27.2 10.7 0 2 1.1 62.5-27.2 62.5S8 21.7 8 19.7zm27.2 70.5c36.6.1 35.2-73.8 35.2-76.3C47.7 6.6 39.1 2.2 35.2 0 31.3 2.2 22.7 6.6 0 13.9c0 2.5-1.4 76.4 35.2 76.3z"/><path class="cst0" d="M23.3 26.7c-5.1 0-9.1 4.1-9.1 9.1s4.1 9.1 9.1 9.1 9.1-4.1 9.1-9.1-4-9.1-9.1-9.1zm-2.9 9.1c0-1.6 1.3-2.9 2.9-2.9 1.6 0 2.9 1.3 2.9 2.9s-1.3 2.9-2.9 2.9c-1.6-.1-2.9-1.3-2.9-2.9z"/></symbol><symbol id="fb" xml:space="preserve" viewBox="0 0 16 24" xmlns="http://www.w3.org/2000/svg"><style>.dst0{fill:#fff}</style><path class="dst0" d="M15.3 5.7V0H7v1.6H5.4v1.6H3.8v4.7H.7v5.7h3.1V24h6.3V13.6h3.1V7.8h-3.1V5.7h5.2z"/></symbol><symbol viewBox="0 0 100 97" id="focus_1" xmlns="http://www.w3.org/2000/svg"><defs><style>.ecls-1{fill-rule:evenodd}</style></defs><path class="ecls-1" d="M74.437 46.09c2.049.13 4.1.29 6.11.46a143.586 143.586 0 01-2.066 18.03l8.212-1.64-5.362-8.25 9.566-5.55-7.945-5.28 6.021-12.38-16.531 3.19-.89-16.45-13.77 11.7L41.7 11.13l-3.456 23.43-19.417-4.14 5.416 13.23-12.345 6.47 13.681 4.91-6.645 9.4 9.566.29a136.793 136.793 0 01-2.1-18.17c2.013-.17 4.044-.33 6.11-.46.677 17.63 3.865 44.68 20.966 44.65 17.119.03 20.307-26.89 20.966-44.65zM48.679 74.86a4.792 4.792 0 109.584 0h4.453a9.245 9.245 0 11-18.49 0h4.453zM77.305 70a96.874 96.874 0 01-1.282 4.62l2.832.27zm-2.939 9.28C70.394 89.24 63.928 97.02 53.471 97c-10.51.02-16.976-7.83-20.966-17.84l-10.991 1.75 2.939-11.51-14.589-.45 8.159-11.53L0 50.93l18.151-9.5-7.2-17.61 23.282 4.98L38.49 0l19.826 23.16L75.809 8.3l1.122 20.61 20.575-4-8.39 17.27L100 49.41l-11.881 6.91 6.484 9.95-12.647 2.54 3.687 11.52zm-43.464-4.73a77.968 77.968 0 01-1.461-5.32l-1.461 5.79zM63.09 56.14a1.505 1.505 0 11-1.514 1.51 1.5 1.5 0 011.514-1.51zm-19.238-7.6a9.1 9.1 0 018.568 6.04 9.235 9.235 0 012.1 0 9.1 9.1 0 11-.374 4.82 3.519 3.519 0 00-1.372 0 9.1 9.1 0 11-8.924-10.86zm0 4.81a4.3 4.3 0 104.293 4.3 4.3 4.3 0 00-4.293-4.3zm19.238 0a4.3 4.3 0 104.293 4.3 4.3 4.3 0 00-4.293-4.3zm-19.238 2.22a2.085 2.085 0 11-2.084 2.08 2.082 2.082 0 012.084-2.08z"/></symbol><symbol id="focus_2" xml:space="preserve" viewBox="0 0 79 67.7" xmlns="http://www.w3.org/2000/svg"><style>.fst0{fill-rule:evenodd;clip-rule:evenodd}</style><path class="fst0" d="M77.3 1.8C76.1.7 74.6 0 73 0H49.2c-2.8 0-5.9 3.6-8.8 7l-.2.2-.7.8H7.4c-2 0-3.9.8-5.2 2.1C.8 11.5 0 13.3 0 15.3v44.9c0 2 .8 3.9 2.2 5.2 1.3 1.3 3.2 2.2 5.2 2.2h64.2c1.9 0 3.7-.8 5-2l.2-.2c1.3-1.3 2.2-3.2 2.2-5.2V6c0-1.7-.7-3.2-1.7-4.2zM7.4 14.1h33.5c1 0 1.9-.5 2.5-1.2.6-.7 1-1.2 1.4-1.7.1-.1.2-.2.2-.3 2-2.3 4.1-4.8 4.1-4.8h23.7v13.4H6.1v-4.2c0-.3.2-.7.4-.9.2-.2.6-.3.9-.3zm65.1 47.1s-.1 0 0 0c-.3.2-.6.4-.9.4H7.4c-.3 0-.7-.2-.9-.4-.2-.2-.4-.6-.4-.9V25.6h66.7v34.7c.1.3-.1.6-.3.9z"/><path class="fst0" d="M45.5 41.6c0 3.1-2.5 5.7-5.7 5.7-3.1 0-5.7-2.6-5.7-5.7v-.2h-5.8v.2c0 6.3 5.2 11.5 11.5 11.5 6.4 0 11.5-5.1 11.5-11.5v-.2h-5.8v.2zM62.2 34.3c-4.1 0-7.5 3.3-7.5 7.4s3.3 7.4 7.5 7.4c4.1 0 7.5-3.3 7.5-7.4s-3.4-7.4-7.5-7.4zm0 9.8c-1.3 0-2.4-1.1-2.4-2.4 0-1.3 1-2.4 2.4-2.4 1.3 0 2.4 1 2.4 2.4-.1 1.3-1.1 2.4-2.4 2.4zM17.1 34.3c-4.1 0-7.5 3.3-7.5 7.4s3.3 7.4 7.5 7.4c4.1 0 7.5-3.3 7.5-7.4s-3.4-7.4-7.5-7.4zm0 9.8c-1.3 0-2.4-1.1-2.4-2.4 0-1.3 1.1-2.4 2.4-2.4 1.3 0 2.4 1 2.4 2.4-.1 1.3-1.2 2.4-2.4 2.4z"/></symbol><symbol id="focus_3" xml:space="preserve" viewBox="0 0 83 93.1" xmlns="http://www.w3.org/2000/svg"><style>.gst0{fill-rule:evenodd;clip-rule:evenodd}</style><path class="gst0" d="M46.9 69.5c0 2.8-2.3 5.1-5.1 5.1s-5.1-2.3-5.1-5.1v-.2h-5.2v.2c0 5.6 4.6 10.2 10.2 10.2s10.2-4.6 10.2-10.2v-.2h-5.2c.2.1.2.2.2.2zM44.1 48.9h14.3v5H44.1z"/><path class="gst0" d="M82.5 19.5L77.3 18s-4.2 4.8-6.7-2.1C67.8 8.2 59.2 2.5 51.7 0l-3.6 4.2c2.5 4.8-.9 10.9-6.6 10.9s-9.1-6-6.6-10.8L31.3.1c-7.9 2.8-16 7.8-18.9 15.9-2.5 6.9-6.7 2.1-6.7 2.1L.5 19.6c-3.1 17 8.4 19.2 12.6 19.5.7 16.7 4.9 54.1 28.4 54 23.5.1 27.7-37.3 28.4-54 4.2-.3 15.7-2.6 12.6-19.6zM29.6 51c0-1.4 1.1-2.5 2.5-2.5s2.5 1.1 2.5 2.5-1.1 2.5-2.5 2.5-2.5-1.1-2.5-2.5zm5.9-7.1c-1-.5-2.2-.8-3.4-.8-4.4 0-7.9 3.5-7.9 7.9 0 1.2.3 2.4.8 3.4l-3.8 3.8c-1.3-7.7-1.6-15-1.7-19.1h20.9l-4.9 4.8zm6 42.7c-10.8 0-16.4-10.9-19.2-22.6l6-6c1.1.6 2.4.9 3.7.9 4.4 0 7.9-3.6 7.9-7.9 0-1.3-.3-2.6-.9-3.7l8.2-8.2h16.2c0 11.1-2.1 47.6-21.9 47.5zm27.2-53.5l-54.4.1s-7.4.4-8.2-7.4c3.6 1.7 8.6 1.6 11.9-7.7 1.7-4.6 5.8-7.9 10-10.1.1 7.3 6.1 13.1 13.4 13.1 7.3 0 13.3-5.9 13.4-13.2 4 2.1 8.5 5.8 10 10.1 3.4 9.3 8.3 9.4 11.9 7.7-.6 7.9-8 7.4-8 7.4z"/><path class="gst0" d="M41.5 24.3c-1.4 0-2.5 1.1-2.5 2.5s1.1 2.5 2.5 2.5 2.5-1.1 2.5-2.5-1.1-2.5-2.5-2.5z"/></symbol><symbol id="focus_4" xml:space="preserve" viewBox="0 0 80 76.9" xmlns="http://www.w3.org/2000/svg"><style>.hst0{fill:#141515}.hst0,.hst1{fill-rule:evenodd;clip-rule:evenodd}</style><path class="hst0" d="M2 34.7c0 5.8 4.7 10.5 10.5 10.5S23 40.5 23 34.7h-7.2c0 1.8-1.5 3.3-3.3 3.3-1.8 0-3.3-1.5-3.3-3.3H2zM59 68.5C59 62.7 63.7 58 69.5 58S80 62.7 80 68.5h-7.2c0-1.8-1.5-3.3-3.3-3.3-1.8 0-3.3 1.5-3.3 3.3H59z"/><path class="hst1" d="M9 2.3h7v20.2H9zM65.7 30.1h7.1v20.2h-7.1zM76.8 19.8l-5 5-12.4-12.4L71.8 0l5 5-7.4 7.4zM19.9 73.1l5-4.9-12.4-12.5L0 68.2l5 4.9 7.5-7.4zM30.7 44.6l5 5 4.7-4.7 4.6 4.7 5-5-4.6-4.7 4.6-4.6-5-5-4.6 4.6-4.7-4.6-5 5 4.7 4.6zM40.8 2C35 2 30.3 6.6 30.3 12.4c0 5.8 4.7 10.5 10.5 10.5s10.5-4.7 10.5-10.5S46.6 2 40.8 2zm-3.3 10.4c0-1.8 1.5-3.3 3.3-3.3 1.8 0 3.3 1.5 3.3 3.3 0 1.8-1.5 3.3-3.3 3.3-1.8 0-3.3-1.4-3.3-3.3zM40.7 55.9c-5.8 0-10.5 4.7-10.5 10.5s4.7 10.5 10.5 10.5 10.5-4.7 10.5-10.5-4.7-10.5-10.5-10.5zm-3.3 10.5c0-1.8 1.5-3.3 3.3-3.3s3.3 1.5 3.3 3.3c0 1.8-1.5 3.3-3.3 3.3s-3.3-1.5-3.3-3.3z"/></symbol><symbol id="gh" xml:space="preserve" viewBox="0 0 21 20" xmlns="http://www.w3.org/2000/svg"><style>.ist0{fill-rule:evenodd;clip-rule:evenodd}</style><path id="iФигура_18_копия_3" class="ist0" d="M3.6 14h-.2l.1.2h.2l-.1-.2m.5 0v.2l.2.1v-.2l-.2-.1m.8 1.3h-.1v.1l.1.2c0 .1.1.1.2.1 0 0 .1 0 .1-.1v-.1l-.1-.1-.2-.1m2.7.7c-.1 0-.2.1-.2.2l.1.1h.1c.1 0 .2-.1.2-.2s-.1-.1-.2-.1M7 16c-.1 0-.2 0-.2.1s.1.1.2.1.2-.1.2-.2H7m-1.4 0c-.1 0-.1 0-.2.1v.1l.1.1h.2l.1-.1c0-.1 0-.1-.2-.2.1 0 0 0 0 0m4.8-16C8.5 0 6.7.4 5.1 1.3 3.5 2.2 2.2 3.4 1.3 5 .4 6.5 0 8.3 0 10.1c0 2.2.7 4.4 2 6.1C3.3 18 5.1 19.3 7.2 20h.2c.1 0 .2 0 .3-.1.1-.1.2-.3.2-.4V17H6.4c-.4 0-.8-.2-1.2-.4-.4-.2-.7-.5-.8-.9l-.2-.3c-.1-.2-.3-.5-.4-.7-.2-.2-.4-.4-.6-.5l-.3-.2c-.1-.1-.2-.2-.2-.3 0-.1.2-.1.5-.1h.3l.6.3c.3.2.5.4.7.7v.1h-.1c-.1 0-.1.1 0 .3H5c.4.4.9.7 1.4.8h.3c.4 0 .8-.1 1.1-.3 0-.5.3-1 .7-1.4-.8-.1-1.5-.2-2.3-.4-.6-.2-1.2-.7-1.7-1.3-.5-.9-.7-1.9-.6-2.9 0-.4.1-.9.2-1.3.2-.4.4-.8.7-1.1-.1-.3-.2-.7-.1-1-.1-.6 0-1.2.3-1.8h.3c.3 0 .6.1.9.2l1.2.6.5.4c.8-.3 1.7-.5 2.6-.4.9 0 1.8.1 2.7.4l.5-.4 1.2-.6c.3-.1.6-.2.9-.2h.3c.2.6.3 1.2.3 1.8 0 .3-.1.7-.2 1 .3.3.6.7.8 1 .2.4.3.9.3 1.4.1 1-.2 2-.7 2.9-.5.6-1.1 1-1.8 1.2-.8.2-1.5.4-2.3.4.5.5.8 1.2.7 1.9v3.5c0 .2.1.3.2.4.1.1.2.1.3.1h.2c4.3-1.4 7.1-5.4 7.1-9.9 0-1.8-.5-3.6-1.4-5.2-.9-1.5-2.3-2.8-3.9-3.6C14.1.4 12.2 0 10.4 0"/></symbol><symbol id="location" xml:space="preserve" viewBox="0 0 32 32" xmlns="http://www.w3.org/2000/svg"><style>.jst0{fill:#28c262}</style><path class="jst0" d="M24.1 3.8h-6.4V0h-3.9v3.8H7.4v3.8h16.7zM7.4 28.2h6.4V32h3.9v-3.8h6.4v-3.8H7.4z"/><path class="jst0" d="M3.9 20.6h6.9v3.8H3.9zM7.9 11.4h2.9V7.6H3.9v6.5h4z"/><path class="jst0" d="M7.9 17.9v-3.8h-4v6.5h4zM17.7 20.7v-2.8h3v-3.8h-3v-2.8h-3.9v2.8h-3v3.8h3v2.8zM28.1 14.1H32v3.8h-3.9zM0 14.1h3.9v3.8H0zM24.1 17.9v2.7h-3.4v3.8h7.4V14.1h-4z"/><path class="jst0" d="M20.7 11.4h3.4v2.7h4V7.6h-7.4z"/></symbol><symbol fill="none" viewBox="0 0 103 82" id="mail" xmlns="http://www.w3.org/2000/svg"><path fill="#fff" d="M0 8.868h8.868v64.119H0zM94.349 0v8.651H8.65V.001zM94.348 72.987v8.651H8.65v-8.65zM60.016 42.714v8.651H42.714v-8.65zM42.714 34.063v8.651h-8.651v-8.65zM34.063 25.413v8.65h-8.651v-8.65zM25.412 16.761v8.651h-8.65v-8.65z"/><path fill="#fff" d="M17.302 8.651v8.651H8.65v-8.65zM94.349 8.652v8.65h-8.651v-8.65zM85.698 16.761v8.651h-8.65v-8.651zM77.047 25.412v8.651h-8.651v-8.65zM68.397 34.063v8.651h-8.651v-8.65z"/><path fill="#fff" d="M94.133 8.868h8.868v64.119h-8.868z"/></symbol><symbol id="med" xml:space="preserve" viewBox="0 0 22 17" xmlns="http://www.w3.org/2000/svg"><style>.lst0{fill:#fff}</style><path class="lst0" d="M22 2.8V0h-8.8v3.6h-1.6v3.2H8.8v6.8h2.8V12h2V9.6h1.6v4h-2v2.8H22v-2.8h-2V2.8h2zM5.2 2.8V0H0v2.8h2v10.8H0v2.8h6.8v-2.8H5.2V2.8z"/><path class="lst0" d="M6.8 1.6H5.2v8h1.6v2h2v-8h-2v-2z"/></symbol><symbol id="sl" xml:space="preserve" viewBox="0 0 14.2 14.2" xmlns="http://www.w3.org/2000/svg"><style>.mst0{fill-rule:evenodd;clip-rule:evenodd}</style><path id="mskack" class="mst0" d="M5.2.6c4.9-1.5 7-.3 8.5 4.6s.3 7-4.6 8.5-7 .3-8.5-4.6-.3-7 4.6-8.5zm5 8l.9-.3c.4-.1.6-.5.5-.9s-.5-.6-.9-.5l-.9.3-.6-1.8.9-.3c.4-.1.6-.5.5-.9s-.6-.6-1-.5l-.9.3-.3-1c-.2-.3-.6-.5-1-.4-.3.1-.6.5-.4.9l.3 1-1.9.6-.3-1c-.2-.3-.6-.5-1-.4s-.6.5-.4.9l.3 1-.9.3c-.4.1-.6.5-.5.9.1.3.4.5.7.5h.3l.9-.3.6 1.8-.9.3c-.4.1-.6.5-.5.9.1.3.4.5.7.5h.3l.9-.3.3 1c.1.3.4.5.7.5h.3c.4-.1.6-.5.5-.9l-.3-1L9 9.2l.3 1c.1.3.4.5.7.5h.3c.4-.1.6-.5.5-.9l-.6-1.2zm-1.8-.9l-1.9.6-.6-1.8 1.8-.6.7 1.8z"/></symbol><symbol id="tw" xml:space="preserve" viewBox="0 0 23 21" xmlns="http://www.w3.org/2000/svg"><style>.nst0{fill:#fff}</style><path class="nst0" d="M19.4 6.4V3.6H18V2.2h-1.4V.8h-5.1v1.4h-1.4v1.4H8.8v2.8H6.9V5H5.1V3.6H3.7V2.2H.9v8h1.4v1.4h1.4V13h2.8v1.4H5.1v1.4H3.7v1.4H2.3V20h12.9v-1.4h1.4v-1.4H18v-1.4h1.4v-5.2h1.4V9.3h1.4V6.4h-2.8z"/></symbol><symbol viewBox="0 0 16 16" id="we" xmlns="http://www.w3.org/2000/svg"><path d="M13.7 2.3C15.2 3.9 16 5.9 16 8s-.8 4.1-2.3 5.7C12.1 15.2 10.1 16 8 16s-4.1-.8-5.7-2.3C.8 12.1 0 10.1 0 8s.8-4.1 2.3-5.7S5.9 0 8 0s4.1.8 5.7 2.3zm-.8 10.6c1-1 1.6-2.2 1.9-3.5-.2.3-.4.4-.5-.3-.1-1.1-1.2-.4-1.8-.8-.7.5-2.2-.9-2 .6.4.7 2.2-.9 1.3.5-.6 1-2.1 3.3-1.9 4.5 0 1.7-1.8.4-2.4-.2-.4-1.1-.1-3.1-1.2-3.7-1.1 0-2.1-.1-2.6-1.4-.2-.9.3-2.3 1.3-2.5 1.5-.9 2 1.1 3.4 1.1.4-.4 1.6-.6 1.7-1.1-.9-.2 1.1-.8-.1-1.1-.7.1-1.1.7-.7 1.2-1.4.3-1.4-1.9-2.7-1.2 0 1.1-2.1.4-.7.1.5-.1-.7-.7-.1-.6.3 0 1.4-.4 1.1-.7.6-.4 1.1.9 1.7 0 .5-.7-.1-.9-.6-.5-.3-.4.5-1.1 1.2-1.4.2-.1.5-.2.7-.1.4.4 1.1.4 1.1-.1-.9-.5-1.9-.7-3-.7-1.5 0-3 .5-4.2 1.4.3.1.5.3.2.5-.2.8-1.2 1.7-2.1 1.6-.4.8-.7 1.6-.8 2.5.7.2.9.7.7.9-.4.3-.6.7-.7 1.2.2 1.4.9 2.8 2 3.8C4.4 14.3 6.1 15 8 15s3.6-.7 4.9-2.1z"/></symbol><symbol id="yt" xml:space="preserve" viewBox="0 0 24 15" xmlns="http://www.w3.org/2000/svg"><style>.pst0{fill:#fff}</style><path class="pst0" d="M22.9 3.5V1.8h-1.1V0H2.3v1.8H1.1v1.7H0v8h1.1v1.6h1.2v1.8h19.5v-1.8h1.1v-1.6H24v-8h-1.1zM15 8.1h-1.2v1.1h-1.2v1.2h-2.3v1.5H8.6V3h1.7v1.6h2.3v1.2h1.2v1.1H15v1.2z"/></symbol></svg>